<?xml version="1.0" standalone="no"?>
<!DOCTYPE svg PUBLIC "-//W3C//DTD SVG 20010904//EN"
 "http://www.w3.org/TR/2001/REC-SVG-20010904/DTD/svg10.dtd">
<svg version="1.0" xmlns="http://www.w3.org/2000/svg"
 width="512.000000pt" height="512.000000pt" viewBox="0 0 512.000000 512.000000"
 preserveAspectRatio="xMidYMid meet">
<metadata>
Created by potrace 1.14, written by Peter Selinger 2001-2017
</metadata>
<g transform="translate(0.000000,512.000000) scale(0.100000,-0.100000)"
fill="#000000" stroke="none">
<path d="M2409 4906 c-2 -2 -38 -6 -79 -9 -248 -20 -554 -108 -796 -230 -139
-70 -144 -73 -234 -131 -447 -290 -785 -728 -952 -1231 -35 -108 -76 -271 -84
-340 -4 -27 -8 -52 -10 -56 -18 -31 -26 -438 -11 -579 82 -783 573 -1490 1275
-1840 249 -124 466 -190 777 -236 72 -10 438 -13 520 -3 468 54 936 259 1280
558 49 43 243 238 270 272 11 13 36 45 56 69 96 119 260 402 308 530 7 19 24
64 37 100 23 60 70 224 80 274 2 11 6 32 9 46 3 14 10 57 16 95 6 39 13 81 16
95 2 14 6 113 8 220 3 189 -8 316 -33 380 -13 32 -49 66 -85 79 -33 13 -1969
17 -2002 5 -37 -13 -75 -45 -91 -76 -14 -26 -16 -81 -16 -374 0 -384 0 -383
72 -431 37 -26 -49 -23 773 -24 207 0 377 -2 377 -4 0 -16 -63 -145 -103 -210
-74 -121 -121 -181 -221 -281 -108 -108 -183 -166 -292 -226 -183 -101 -366
-162 -554 -184 -79 -9 -239 -11 -293 -3 -120 16 -145 21 -207 36 -394 96 -752
388 -929 758 -71 147 -97 224 -126 380 -23 119 -25 322 -5 450 13 85 58 256
71 269 5 6 9 18 9 27 0 26 101 218 161 305 74 108 254 286 364 361 246 166
497 244 785 245 165 0 283 -17 435 -63 129 -39 299 -124 400 -199 44 -32 93
-67 109 -76 40 -22 110 -20 149 5 57 36 475 465 492 504 35 84 11 134 -113
233 -342 274 -743 444 -1177 500 -54 7 -430 15 -436 10z"/>
</g>
</svg>
