<?xml version="1.0" standalone="no"?>
<!DOCTYPE svg PUBLIC "-//W3C//DTD SVG 20010904//EN"
 "http://www.w3.org/TR/2001/REC-SVG-20010904/DTD/svg10.dtd">
<svg version="1.0" xmlns="http://www.w3.org/2000/svg"
 width="1079.000000pt" height="1079.000000pt" viewBox="0 0 1079.000000 1079.000000"
 preserveAspectRatio="xMidYMid meet">
<metadata>
Created by potrace 1.14, written by Peter Selinger 2001-2017
</metadata>
<g transform="translate(0.000000,1079.000000) scale(0.100000,-0.100000)"
fill="#000000" stroke="none">
<path d="M5037 10774 c-1 -1 -56 -5 -122 -9 -175 -9 -396 -32 -489 -51 -11 -2
-46 -8 -76 -14 -69 -12 -103 -18 -160 -31 -25 -6 -55 -13 -67 -15 -60 -12
-282 -81 -388 -121 -120 -46 -314 -136 -412 -192 -361 -206 -654 -512 -807
-843 -59 -128 -138 -377 -159 -503 -3 -16 -10 -55 -16 -85 -20 -106 -44 -286
-56 -420 -31 -353 -26 -1020 10 -1225 2 -16 7 -50 10 -75 10 -84 56 -315 80
-400 94 -332 256 -654 453 -901 118 -147 251 -267 507 -458 83 -61 155 -114
160 -119 6 -4 55 -39 110 -77 55 -38 120 -83 145 -101 79 -54 459 -307 610
-405 459 -297 917 -615 1055 -731 11 -9 40 -33 65 -53 133 -110 222 -209 265
-295 56 -111 108 -297 130 -460 3 -25 8 -56 10 -70 11 -68 24 -302 26 -480 4
-296 -38 -516 -126 -667 -56 -94 -182 -188 -280 -208 -64 -13 -202 -12 -270 2
-192 40 -286 158 -320 405 -3 24 -8 54 -10 68 -14 80 -19 302 -19 952 l-1 728
-30 0 c-41 1 -2408 1 -2471 1 l-50 -1 2 -507 c1 -280 5 -551 8 -603 3 -52 8
-131 11 -175 3 -44 7 -102 10 -130 2 -27 7 -81 10 -120 3 -38 8 -81 10 -95 3
-14 7 -47 10 -75 5 -43 13 -92 31 -192 2 -13 6 -35 9 -50 39 -224 123 -499
200 -654 47 -94 145 -249 207 -324 69 -86 248 -254 350 -330 246 -185 512
-326 820 -436 62 -23 120 -42 129 -44 8 -2 40 -11 70 -20 30 -9 81 -23 114
-32 33 -8 67 -16 75 -18 30 -8 226 -46 260 -51 19 -3 46 -7 60 -9 32 -6 161
-23 220 -29 240 -27 872 -28 1055 -1 26 3 130 17 245 31 19 3 42 7 50 9 8 3
33 7 55 11 22 3 67 12 100 19 33 8 71 16 85 19 201 36 568 168 815 294 134 68
398 231 425 262 3 3 25 21 50 40 57 44 224 210 277 275 120 150 207 323 274
545 11 36 22 76 25 90 3 14 9 41 14 60 12 44 47 231 55 290 3 25 8 56 10 70 2
14 6 54 10 90 3 36 8 81 10 100 27 248 27 1018 0 1290 -2 19 -6 71 -10 115 -3
44 -8 87 -10 95 -2 8 -7 40 -10 70 -7 61 -9 76 -25 170 -6 36 -13 79 -16 95
-3 17 -16 80 -30 140 -14 61 -27 121 -30 134 -3 13 -9 32 -15 43 -5 10 -7 18
-5 18 8 0 -79 248 -119 340 -70 158 -139 275 -243 410 -68 87 -314 339 -412
422 -188 158 -382 310 -545 425 -63 45 -548 370 -600 402 -103 64 -254 158
-271 168 -73 45 -255 154 -284 170 -19 11 -65 39 -103 61 -37 23 -70 42 -72
42 -3 0 -69 41 -146 90 -262 167 -445 319 -541 448 -53 72 -116 215 -132 302
-2 14 -9 48 -16 75 -26 118 -38 286 -35 490 3 222 4 232 37 365 44 183 136
313 261 370 80 36 101 40 202 41 124 0 214 -31 279 -98 53 -54 82 -116 102
-218 4 -22 8 -45 9 -51 20 -93 27 -286 27 -761 0 -426 1 -463 16 -464 91 -4
2524 -1 2528 4 13 13 4 846 -11 1027 -10 129 -17 198 -20 230 -3 19 -7 58 -10
85 -3 28 -7 61 -9 75 -2 14 -7 48 -10 76 -4 28 -9 61 -11 75 -3 13 -7 35 -10
49 -4 25 -23 117 -30 155 -15 70 -69 243 -98 312 -139 330 -391 584 -802 809
-313 171 -732 313 -1107 374 -35 5 -72 12 -84 14 -19 4 -88 13 -159 21 -16 2
-52 6 -80 9 -169 20 -355 29 -598 30 -120 1 -219 0 -220 0z"/>
</g>
</svg>
